# xmcd CD database file
#
# Track frame offsets:
#	150
#	14096
#	27923
#	42657
#	56996
#	71083
#	86233
#	99561
#	114115
#	128805
#	142404
#	156324
#	170709
#	183851
#	196886
#	209921
#	223792
#	237662
#	251839
#	265312
#	278473
#	291400
#	307180
#	321495
#	337165
#
# Disc length: 4697 seconds
#
# Revision: 0
# Processed by: cddbd v1.5.2PL0 Copyright (c) Steve Scherf et al.
# Submitted via: CDex 1.70beta2
#
DISCID=ab125719
DTITLE=Tanner Gid and his Skillet Lickers - Old timey's favorite band 1
DYEAR=2012
DGENRE=Country
TTITLE0=Soldiers joy
TTITLE1=Rock that cradle Lucy
TTITLE2=Bonaparte's retreat
TTITLE3=Cripple creek
TTITLE4=Hell's broke loose in Georgia
TTITLE5=There'll be a hot time in the old town tonight
TTITLE6=Rocky pallet
TTITLE7=A corn licker still in Georgia 1
TTITLE8=A corn licker still in Georgia 2
TTITLE9=Pass around the bottle and we'll all take a drink
TTITLE10=Hand me down my walking cane
TTITLE11=Alabama jubilee
TTITLE12=Bully of the town
TTITLE13=Where did you get that hat
TTITLE14=Goodbye booze
TTITLE15=Mississippi sawyer
TTITLE16=Georgia waggoner
TTITLE17=Rufus
TTITLE18=Cumberland gap on a buckin' mule
TTITLE19=Hawkins rag
TTITLE20=Skillet licker breakdown
TTITLE21=Devilish Mary
TTITLE22=Old Dan Tucker
TTITLE23=Nancy rollin'
TTITLE24=Soldier will you marry me
EXTD=YEAR: 2012
EXTT0=
EXTT1=
EXTT2=
EXTT3=
EXTT4=
EXTT5=
EXTT6=
EXTT7=
EXTT8=
EXTT9=
EXTT10=
EXTT11=
EXTT12=
EXTT13=
EXTT14=
EXTT15=
EXTT16=
EXTT17=
EXTT18=
EXTT19=
EXTT20=
EXTT21=
EXTT22=
EXTT23=
EXTT24=
PLAYORDER=
